<svg version="1.1" id="Calque_1" xmlns="http://www.w3.org/2000/svg" x="0" y="0" viewBox="0 0 26.214 23.421" xml:space="preserve"><g id="noun_Arrow_512929" transform="translate(-21.211 -24.5)"><path id="Tracé_1172" d="M47.296 47.283c-3.19 0-6.242.365-9.432.638-.046 0-.182-1.732.046-1.777a26.08 26.08 0 0 1 3.281-.592 41.548 41.548 0 0 1-10.845-6.334c-4.42-3.372-8.019-7.792-9.113-13.351-.091-.41.137-1.094.046-1.367 1.185 5.7 5.1 10.025 9.751 13.305 4.192 3.007 9.022 5.924 14.216 6.516a18.497 18.497 0 0 1-1.321-1.276 21.798 21.798 0 0 1-2.6-3.509c-.091-.182.137-.775.046-.911 1.321 1.413 2.506 2.962 3.919 4.283.911.866 1.959 1.458 2.1 2.78.039.228.084 1.595-.094 1.595z" fill="#43ab9e"/></g></svg>