<svg version="1.1" id="Calque_1" xmlns="http://www.w3.org/2000/svg" x="0" y="0" viewBox="0 0 22.922 25.422" xml:space="preserve"><g id="Elements_Titres" transform="translate(-471.909 -1057.468)" fill="#181f1f"><path id="Tracé_1849" d="M489.211 1082.733l4.653-2.34a1.734 1.734 0 0 0 .809-2.275 1.736 1.736 0 0 0-2.275-.808l-4.653 2.34a1.732 1.732 0 0 0-.807 2.275 1.736 1.736 0 0 0 2.275.808"/><path id="Tracé_1850" d="M484.071 1072.683l5.393-6.116c.529-.78.327-1.84-.451-2.371a1.76 1.76 0 0 0-2.372.451l-5.393 6.116a1.71 1.71 0 0 0 .451 2.372 1.76 1.76 0 0 0 2.372-.452"/><path id="Tracé_1851" d="M475.318 1066.298l.488-7.008a1.728 1.728 0 0 0-1.586-1.82 1.737 1.737 0 0 0-1.82 1.586l-.489 7.008a1.726 1.726 0 0 0 1.586 1.819 1.736 1.736 0 0 0 1.821-1.585"/></g></svg>