<?xml version="1.0" standalone="no"?>
<!DOCTYPE svg PUBLIC "-//W3C//DTD SVG 20010904//EN"
 "http://www.w3.org/TR/2001/REC-SVG-20010904/DTD/svg10.dtd">
<svg version="1.0" xmlns="http://www.w3.org/2000/svg"
 width="512.000000pt" height="512.000000pt" viewBox="0 0 512.000000 512.000000"
 preserveAspectRatio="xMidYMid meet">
<metadata>
Created by potrace 1.14, written by Peter Selinger 2001-2017
</metadata>
<g transform="translate(0.000000,512.000000) scale(0.100000,-0.100000)"
fill="#000000" stroke="none">
<path d="M0 2560 l0 -2560 2560 0 2560 0 0 2560 0 2560 -2560 0 -2560 0 0
-2560z m1916 2110 c123 -302 424 -1094 433 -1138 15 -74 13 -215 -4 -289 -43
-182 -163 -339 -328 -429 -45 -24 -51 -25 -62 -11 -6 9 -83 200 -170 424 -87
224 -209 539 -272 698 -63 160 -160 407 -215 550 -55 143 -103 266 -105 273
-4 10 65 12 342 10 l347 -3 34 -85z m2014 87 c0 -2 -70 -183 -156 -403 -85
-219 -198 -509 -251 -644 -52 -135 -151 -389 -220 -565 -162 -415 -484 -1240
-728 -1865 -106 -272 -225 -577 -265 -677 l-71 -183 -345 0 c-189 0 -344 2
-344 5 0 6 264 686 590 1520 144 369 319 819 390 1000 70 182 182 467 248 635
66 168 170 436 232 595 62 160 135 346 162 415 28 69 54 135 59 148 l9 22 345
0 c190 0 345 -1 345 -3z"/>
</g>
</svg>
